<?xml version="1.0" encoding="UTF-8" standalone="no"?>
<!-- Created with Inkscape (http://www.inkscape.org/) -->

<svg
   xmlns:dc="http://purl.org/dc/elements/1.1/"
   xmlns:cc="http://creativecommons.org/ns#"
   xmlns:rdf="http://www.w3.org/1999/02/22-rdf-syntax-ns#"
   xmlns:svg="http://www.w3.org/2000/svg"
   xmlns="http://www.w3.org/2000/svg"
   xmlns:sodipodi="http://sodipodi.sourceforge.net/DTD/sodipodi-0.dtd"
   xmlns:inkscape="http://www.inkscape.org/namespaces/inkscape"
   width="282.92014"
   height="89.738907"
   viewBox="0 0 74.855956 23.743418"
   version="1.1"
   id="svg7275"
   inkscape:version="0.92.0 r15299"
   sodipodi:docname="kathamandu.svg">
  <defs
     id="defs7269" />
  <sodipodi:namedview
     id="base"
     pagecolor="#ffffff"
     bordercolor="#666666"
     borderopacity="1.0"
     inkscape:pageopacity="0.0"
     inkscape:pageshadow="2"
     inkscape:zoom="2.8549053"
     inkscape:cx="140.46066"
     inkscape:cy="43.869302"
     inkscape:document-units="mm"
     inkscape:current-layer="layer1"
     showgrid="false"
     fit-margin-top="0"
     fit-margin-left="0"
     fit-margin-right="0"
     fit-margin-bottom="0"
     units="px"
     inkscape:window-width="1280"
     inkscape:window-height="744"
     inkscape:window-x="-4"
     inkscape:window-y="-4"
     inkscape:window-maximized="1" />
  <metadata
     id="metadata7272">
    <rdf:RDF>
      <cc:Work
         rdf:about="">
        <dc:format>image/svg+xml</dc:format>
        <dc:type
           rdf:resource="http://purl.org/dc/dcmitype/StillImage" />
        <dc:title></dc:title>
      </cc:Work>
    </rdf:RDF>
  </metadata>
  <g
     inkscape:label="Layer 1"
     inkscape:groupmode="layer"
     id="layer1"
     transform="translate(319.13365,-212.29229)">
    <path
       style="fill:#212620;fill-rule:evenodd;stroke-width:0.26458332"
       inkscape:connector-curvature="0"
       d="m -314.05361,230.68847 3.41312,-4.28625 h -2.96333 l -2.77813,3.76502 h -0.0265 v -3.75708 h -2.46062 v 9.19427 h 2.46062 v -4.18042 h 0.0265 l 2.87338,4.18042 h 3.13266 l -3.6777,-4.92125 z m 7.77345,1.8706 c 0,0.79905 -0.5715,1.6219 -1.47108,1.6219 -0.55562,0 -0.97896,-0.27781 -0.97896,-0.74877 0,-0.65617 0.635,-0.91017 1.44463,-0.91017 0.35454,-0.005 0.6985,0.0212 1.00541,0.0344 z m 2.3548,3.048 c -0.10584,-0.5371 -0.1323,-1.08479 -0.1323,-1.62454 v -2.55852 c 0,-2.0955 -1.524,-2.85221 -3.28083,-2.85221 -1.016,0 -1.905,0.14817 -2.75167,0.49213 l 0.0397,1.61396 c 0.66146,-0.37042 1.42875,-0.51859 2.19604,-0.51859 0.85461,0 1.56105,0.25136 1.57427,1.18534 -0.30691,-0.0529 -0.72495,-0.0926 -1.11125,-0.0926 -1.27,0 -3.55864,0.25136 -3.55864,2.3495 0,1.49225 1.21708,2.16165 2.58233,2.16165 0.97367,0 1.64042,-0.38629 2.17752,-1.24354 h 0.0265 c 0,0.35983 0.0397,0.71437 0.0529,1.08479 h 2.18281 v 0.005 z m 3.95023,0.15875 c 0.6006,0 1.0451,-0.0794 1.49754,-0.13229 l -0.0794,-1.54516 c -0.23812,0.0397 -0.49212,0.0926 -0.72496,0.0926 -0.75141,0 -0.9525,-0.42333 -0.9525,-1.25413 v -2.5347 h 1.66688 v -1.66688 h -1.66688 v -2.26748 l -2.33627,0.7329 v 1.54252 h -1.41023 v 1.66687 h 1.36261 v 2.79665 c 0,1.62983 0.51858,2.57175 2.64583,2.57175 z m 6.83154,-0.15875 h 2.38125 v -4.28625 c 0,-1.42345 -0.75142,-2.74373 -2.63525,-2.74373 -1.03188,0 -1.78859,0.46303 -2.30188,1.17475 h -0.0265 v -4.04283 h -2.38125 v 9.89542 h 2.38125 v -2.89984 c 0,-1.48166 0.508,-2.14841 1.48167,-2.14841 0.64823,0 1.10067,0.43656 1.10067,1.73037 v 3.32317 z m 12.19729,0 h 2.38125 v -4.05077 c 0,-1.85208 -0.45508,-2.97656 -2.43417,-2.97656 -0.97896,0 -1.88912,0.39688 -2.45004,1.32292 -0.37042,-0.89959 -1.17475,-1.32292 -2.15371,-1.32292 -1.08479,0 -2.03729,0.43656 -2.51354,1.42875 h -0.0265 v -1.27 h -2.16958 v 6.87123 h 2.38125 v -2.90513 c 0,-1.48166 0.50271,-2.14841 1.34937,-2.14841 0.67205,0 0.9525,0.57679 0.9525,1.35996 v 3.69358 h 2.38125 v -2.90513 c 0,-1.48166 0.50271,-2.14841 1.34938,-2.14841 0.67204,0 0.9525,0.57679 0.9525,1.35996 v 3.69358 z m 7.25487,-3.05064 c 0,0.79904 -0.57414,1.62189 -1.47108,1.62189 -0.55033,0 -0.97896,-0.27781 -0.97896,-0.74877 0,-0.65616 0.635,-0.91016 1.44463,-0.91016 0.35189,-0.005 0.6985,0.0212 1.00541,0.0344 z m 0.17198,3.048 h 2.17752 c -0.10583,-0.53711 -0.13229,-1.08479 -0.13229,-1.62454 v -2.55588 c 0,-2.0955 -1.52135,-2.85221 -3.28083,-2.85221 -1.016,0 -1.89971,0.14817 -2.75167,0.49213 l 0.0423,1.61396 c 0.65352,-0.37042 1.42875,-0.51859 2.19075,-0.51859 0.85725,0 1.56104,0.25136 1.57691,1.18534 -0.30691,-0.0529 -0.72496,-0.0926 -1.11125,-0.0926 -1.27,0 -3.55864,0.25136 -3.55864,2.3495 0,1.49225 1.21708,2.16165 2.57704,2.16165 0.97896,0 1.64041,-0.38629 2.18281,-1.24354 h 0.0265 c 0,0.35983 0.037,0.71966 0.0529,1.09008 z m 7.65175,0 h 2.38125 v -4.28625 c 0,-1.42346 -0.75141,-2.74373 -2.63525,-2.74373 -1.08479,0 -2.03729,0.43656 -2.51354,1.42875 h -0.0265 v -1.27 h -2.16958 v 6.87123 h 2.38125 v -2.89984 c 0,-1.48166 0.508,-2.14841 1.48167,-2.14841 0.64823,0 1.10066,0.43656 1.10066,1.73037 v 3.32317 z m 8.17563,-3.41313 c 0,1.00013 -0.65352,1.75419 -1.45521,1.75419 -0.89429,0 -1.43933,-0.74877 -1.43933,-1.8415 0,-0.91281 0.51858,-1.70921 1.44198,-1.70921 0.87312,-0.005 1.4552,0.74084 1.4552,1.79123 z m 0.1905,3.41313 h 2.19604 v -9.89542 h -2.39713 v 3.90525 h -0.0265 c -0.60855,-0.78846 -1.41552,-1.03981 -2.36538,-1.03981 -1.905,0 -2.94746,1.78329 -2.94746,3.46604 0,2.032 1.09802,3.72269 3.14854,3.72269 1.09538,0 2.05846,-0.62177 2.36538,-1.38642 h 0.0265 z m 7.7126,-6.87123 v 2.90512 c 0,1.48167 -0.508,2.14842 -1.48167,2.14842 -0.64822,0 -1.10066,-0.43656 -1.10066,-1.73037 v -3.31523 h -2.38125 v 4.28625 c 0,1.42345 0.75142,2.74373 2.63525,2.74373 1.08479,0 2.03729,-0.43657 2.51354,-1.42875 h 0.0265 v 1.27 h 2.16958 v -6.87388 h -2.38125 z m 3.74915,-1.45521 h -0.19844 v -0.47625 h 0.25929 c 0.18521,0 0.37836,0.0476 0.37836,0.23813 0,0.22225 -0.20638,0.23812 -0.43921,0.23812 z m 0.77787,0.93133 -0.47625,-0.68262 c 0.23284,-0.0265 0.42334,-0.15875 0.42334,-0.48683 0,-0.34396 -0.1905,-0.49742 -0.56886,-0.49742 h -0.635 v 1.66687 h 0.29104 v -0.67468 h 0.15875 l 0.47625,0.67998 h 0.33338 z m 0.40746,-0.79375 c 0,0.66675 -0.47625,1.14565 -1.12183,1.14565 -0.64559,0 -1.12448,-0.47625 -1.12448,-1.14829 0,-0.6694 0.47625,-1.14565 1.12448,-1.14565 0.64293,0.005 1.12183,0.48419 1.12183,1.14565 z m 0.31221,0 c 0,-0.79375 -0.635,-1.42875 -1.42875,-1.42875 -0.79375,0 -1.42875,0.635 -1.42875,1.42875 0,0.78846 0.635,1.42346 1.42875,1.42346 0.78581,0.008 1.42875,-0.62971 1.42875,-1.42875 z m -24.18821,-5.02973 -9.67052,-9.72079 c 0,0 -0.24606,-0.24341 -0.49212,0 l -7.51417,7.55121 c 0,0 -0.24606,0.24606 -0.59267,0.24606 h -3.30729 c 0,0 -0.34925,0 -0.11112,-0.24606 l 4.45029,-4.46352 c 0,0 0.24606,-0.24606 0.49212,0 l 1.11654,1.12183 1.53459,-1.53458 -2.65377,-2.66171 c 0,0 -0.24607,-0.24606 -0.49213,0 l -9.67581,9.71286 c -0.14023,0.14552 -0.0529,0.24606 0.10054,0.24606 h 9.43504 c 0,0 0.34925,0 0.59531,-0.24871 l 6.61459,-6.64104 c 0,0 0.24871,-0.24342 0.49477,0 l 4.445,4.46617 c 0,0 0.24871,0.24606 -0.0979,0.24606 h -3.30729 c 0,0 -0.34925,0 -0.59531,-0.24606 l -2.04258,-2.05582 -1.53459,1.53459 2.67229,2.69081 c 0,0 0.24607,0.24342 0.59267,0.24342 h 9.44563 c 0.15081,0 0.24341,-0.0979 0.10583,-0.24342"
       id="path7277" />
  </g>
</svg>
