<?xml version="1.0" encoding="UTF-8" standalone="no"?>
<!-- Created with Inkscape (http://www.inkscape.org/) -->

<svg
   xmlns:dc="http://purl.org/dc/elements/1.1/"
   xmlns:cc="http://creativecommons.org/ns#"
   xmlns:rdf="http://www.w3.org/1999/02/22-rdf-syntax-ns#"
   xmlns:svg="http://www.w3.org/2000/svg"
   xmlns="http://www.w3.org/2000/svg"
   version="1.1"
   width="524.56"
   height="284.78693"
   id="svg2">
  <defs
     id="defs4">
 <style
   type="text/css"
   id="style2989" />

  </defs>
  <metadata
     id="metadata7">
    <rdf:RDF>
      <cc:Work
         rdf:about="">
        <dc:format>image/svg+xml</dc:format>
        <dc:type
           rdf:resource="http://purl.org/dc/dcmitype/StillImage" />
        <dc:title></dc:title>
      </cc:Work>
    </rdf:RDF>
  </metadata>
  <g
     transform="translate(-129.14856,-341.39729)"
     id="layer1">
    <g
       transform="matrix(3.543307,0,0,3.543307,9.4443087,10.690175)"
       id="g3001"
       style="fill-rule:evenodd">
      <g
         id="Camada_x0020_1">
  <metadata
   id="CorelCorpID_0Corel-Layer" />

  <g
   id="_201448736">
   <path
   d="m 122.485,93.3329 49.6934,0 9.6473,0.0147 0,17.1659 c -1.5857,0.2642 -3.8329,0.662 -5.5507,1.1904 -3.0393,1.1884 -12.2914,2.7756 -12.2914,-2.5109 0,-5.287 7.7975,-4.3613 7.7975,-4.3613 0,-5e-4 -0.7926,-1.3216 -4.0966,-1.9826 -3.1715,-0.6619 -8.8548,-1.4536 -16.9169,4.7577 -8.1933,6.2107 -13.4803,5.8154 -13.4803,5.8154 0,-5e-4 -4.4935,0.3963 -4.4935,-4.2292 0,-4.4939 7.9296,-3.965 7.9296,-3.965 0,-5e-4 -3.8329,-2.6431 -7.5333,-2.6431 -3.5682,-4e-4 -7.1369,1.1895 -11.6303,3.7004 -2.7752,1.4536 -6.3439,2.6435 -8.7227,3.1719 l 0,-16.1165 9.6479,-0.0078 z m 59.3407,34.8906 0,2.644 -0.0371,9.6479 -68.9128,0 -0.0387,-9.6479 0,-3.5692 c 2.3788,-0.66 5.9475,-1.7173 8.7227,-3.3035 4.4934,-2.5109 8.0621,-3.7003 11.6303,-3.7003 3.7004,-0.001 7.5333,2.6435 7.5333,2.6435 0,-5e-4 -7.9296,-0.5289 -7.9296,4.0966 0,4.4929 4.4935,4.0971 4.4935,4.0971 0,0 5.2865,0.3963 13.4803,-5.8149 8.0621,-6.2127 13.7449,-5.4186 16.9169,-4.7581 3.3045,0.66 4.0966,1.9825 4.0966,1.9825 0,0 -7.7975,-0.9252 -7.7975,4.4934 0,5.2865 9.2516,3.5687 12.2914,2.5114 1.7178,-0.661 3.9645,-1.0573 5.5507,-1.322 l 0,-5e-4 z"
   id="_201449384"
   style="fill:#373435" />

   <path
   d="m 99.0284,158.188 0.5715,0 c 1.3553,0 2.3685,-0.2466 3.0339,-0.7358 0.6659,-0.4893 1.0016,-1.2193 1.0016,-2.1973 0,-0.9424 -0.3181,-1.6435 -0.9482,-2.0912 -0.6307,-0.4486 -1.6146,-0.6717 -2.9518,-0.6717 l -0.707,0 0,5.696 z m 77.7236,10.8593 4.6583,0 0,4.6583 -4.6583,0 0,-4.6583 z m -84.8184,-19.9235 -1.6861,0 -20.3363,22.0298 -0.984,0 -0.6972,0 0,-22.0298 -2.0476,0 0,22.0298 -8.9986,0 0,-22.0298 -2.0475,0 0,24.1498 11.0461,0 2.7448,0 11.0462,0 0,-2.12 -7.292,0 3.8701,-4.0859 13.2694,0 -0.0837,6.2059 2.1983,0 -0.0019,-24.1498 z m -13.4192,16.0974 11.5996,-13.3951 -0.2491,13.3951 -11.3505,0 z m -25.1845,-16.0974 -2.0178,0 0,24.1498 2.0178,0 0,-24.1498 z m -19.5467,0 0,24.1498 6.2934,0 c 3.372,0 4.1554,0.001 5.1486,-0.1698 3.9146,-0.7182 4.9685,-4.0707 4.9685,-6.6707 0,-3.2849 -1.6259,-5.4049 -4.2757,-6.0889 -0.0901,-5e-4 -0.1806,-0.0342 -0.2407,-0.0685 0.0601,0 0.1203,0 0.1805,-0.0342 1.3553,-0.2735 3.6132,-1.5735 3.6132,-5.0967 0,-1.8142 -0.6321,-3.3867 -1.6561,-4.4127 -1.5657,-1.574 -3.6133,-1.6078 -5.2391,-1.6078 l -8.7926,-5e-4 z m 2.0177,2.0525 6.3233,0 c 1.5055,0 2.9811,5e-4 4.035,0.9238 0.7226,0.615 1.2339,1.6419 1.2339,3.0104 0,1.4018 -0.5113,2.4972 -1.2041,3.147 -1.1444,1.0945 -2.8005,1.095 -4.4264,1.095 l -5.9617,-5e-4 0,-8.1757 z m 0,10.1597 5.8712,0 c 1.1747,0.0347 2.2286,0.0347 3.1617,0.3424 0.4217,0.1018 3.3426,1.0603 3.3426,4.8575 0,2.942 -1.686,4.4812 -4.3965,4.6182 -0.5118,0.0333 -1.1738,0.0337 -2.5892,0.0337 l -5.3898,-4e-4 0,-9.8514 z m 142.636,-1.4923 c 0,0.0949 0.005,0.2363 0.0171,0.4247 0.0118,0.1879 0.0176,0.3297 0.0176,0.4242 0,1.0773 -0.1003,2.0852 -0.2945,3.0104 -0.1942,0.9243 -0.4951,1.7966 -0.8954,2.6157 -1.184,2.3558 -2.7986,4.1768 -4.8427,5.4612 -2.0442,1.2843 -4.3535,1.9262 -6.9281,1.9262 -1.9027,-5e-4 -3.6587,-0.365 -5.2669,-1.0896 -1.6136,-0.7251 -3.0633,-1.7971 -4.3476,-3.2287 -1.072,-1.1967 -1.8911,-2.5505 -2.4508,-4.0707 -0.1673,-0.4511 -0.3117,-0.9115 -0.4301,-1.3787 l 0,9.2667 -4.5599,0 -10.4747,-16.5363 0,16.5363 -4.8306,0 0,-8.7838 c -0.1101,0.3787 -0.2363,0.7534 -0.3806,1.1199 -0.6126,1.5779 -1.5197,2.9748 -2.716,4.1945 -1.2075,1.278 -2.6156,2.2565 -4.2238,2.9454 -1.6024,0.683 -3.2815,1.025 -5.0311,1.025 -1.8734,-5e-4 -3.5996,-0.3356 -5.1784,-1.001 -1.573,-0.6664 -2.9694,-1.6557 -4.1945,-2.9694 -0.7369,-0.7814 -1.3622,-1.6224 -1.8744,-2.5232 -0.1086,0.5632 -0.2735,1.1073 -0.4961,1.6337 -0.436,1.0304 -1.0427,1.8852 -1.8147,2.5623 -0.7716,0.6478 -1.6317,1.1077 -2.5863,1.3846 -0.9541,0.277 -2.3093,0.4125 -4.0531,0.4125 l -6.3037,-5e-4 0,-25.1327 5.4025,0 c 1.0955,0 1.962,0.0421 2.6097,0.1306 0.642,0.0876 1.2134,0.2359 1.7086,0.4419 1.3782,0.5597 2.439,1.3728 3.1753,2.4331 0.7364,1.0539 1.1018,2.2917 1.1018,3.7116 0,1.1722 -0.2182,2.1738 -0.6541,2.9987 -0.4418,0.8298 -1.0837,1.4609 -1.9321,1.8851 0.8356,0.2456 1.5514,0.6512 2.1488,1.21 l -0.002,-0.297 c 0,-1.3788 0.1825,-2.6802 0.5538,-3.9058 0.3655,-1.2266 0.913,-2.3744 1.6376,-3.4464 1.2432,-1.8093 2.8045,-3.1988 4.6779,-4.1828 1.8734,-0.9839 3.9234,-1.4785 6.1442,-1.4785 1.6674,-5e-4 3.2757,0.3239 4.8252,0.9658 1.5495,0.6414 2.9336,1.573 4.1534,2.781 1.2549,1.254 2.209,2.6626 2.8632,4.2297 0.1683,0.4007 0.3141,0.8107 0.4393,1.2237 l 0,-8.7007 4.6598,0 10.392,16.0548 0,-16.0548 4.8134,0 0,9.1576 c 0.1566,-0.5866 0.3577,-1.1635 0.6009,-1.7276 0.6776,-1.5676 1.6733,-2.9987 2.9869,-4.2889 1.2428,-1.2325 2.6215,-2.1445 4.1476,-2.7453 1.5255,-0.5959 3.2164,-0.8953 5.0663,-0.8953 2.7042,-5e-4 5.0429,0.6595 7.0107,1.9849 1.9679,1.3196 3.4817,3.2522 4.5536,5.7974 l -5.9729,0 c -0.7246,-0.9081 -1.5794,-1.5907 -2.5633,-2.0442 -0.9839,-0.454 -2.0857,-0.6835 -3.305,-0.6835 -2.1503,-5e-4 -3.9709,0.7774 -5.4671,2.3328 -1.4962,1.549 -2.2447,3.4405 -2.2447,5.6613 5e-4,2.256 0.7544,4.1593 2.2682,5.7088 1.5148,1.549 3.376,2.3211 5.585,2.3211 1.5324,0 2.9219,-0.4125 4.171,-1.2428 1.2496,-0.8312 2.1679,-1.9502 2.7688,-3.3524 l -9.8739,0 0,-4.2126 15.6893,0 z m -65.4204,0.5715 c 0,1.0847 0.1766,2.0921 0.5357,3.0226 0.3538,0.9301 0.8841,1.7849 1.5853,2.557 0.7715,0.8361 1.6493,1.4844 2.6273,1.9379 0.9781,0.4526 1.9913,0.6836 3.034,0.6836 2.2031,-0.001 4.0472,-0.7834 5.5375,-2.3505 1.4908,-1.5622 2.233,-3.5115 2.233,-5.8502 0,-2.1449 -0.7481,-3.9708 -2.2506,-5.4846 -1.5021,-1.5148 -3.305,-2.2683 -5.4138,-2.2683 -2.1978,-0.001 -4.0594,0.754 -5.5908,2.2624 -1.5319,1.5074 -2.2976,3.3402 -2.2976,5.4901 z m -13.9882,8.3713 1.485,0 c 1.4961,0 2.5921,-0.2529 3.2927,-0.7535 0.7011,-0.501 1.0549,-1.2725 1.0549,-2.321 0,-1.1376 -0.3655,-2.0031 -1.1018,-2.5922 -0.7359,-0.5832 -1.8206,-0.8777 -3.2458,-0.8777 l -1.485,-5e-4 0,6.5449 z"
   id="_201448928"
   style="fill:#373435" />

  </g>

 </g>
    </g>
  </g>
</svg>
